<svg
   version="1.1"
   x="0px"
   y="0px"
   width="100%"
   viewBox="0 0 216 215"
   enable-background="new 0 0 216 215"
   xmlns="http://www.w3.org/2000/svg"
  >




<path
   fill="currentColor"
   opacity="1"
   stroke="none"
   d="m 117.18721,143.2718 c -7.88644,4.20142 -14.29454,0.1922 -13.93778,-8.45169 0.22665,-5.49198 0.61296,-10.97955 1.05006,-16.45934 0.13298,-1.66703 0.19981,-3.03275 -1.63252,-3.8494 -4.101718,-1.82811 -8.161328,-3.75074 -12.820068,-5.90384 -1.68463,6.9064 -3.27539,13.41084 -4.85739,19.91741 -2.82819,11.63195 -5.62217,23.27232 -8.4887,34.89481 -1.37715,5.58369 -5.69453,8.69805 -10.33297,7.60731 -4.80928,-1.13092 -7.20576,-5.45475 -6.21519,-11.23836 0.11873,-0.69323 0.29855,-1.37661 0.46436,-2.0611 4.01353,-16.5686 7.87932,-33.17536 12.14114,-49.67987 1.18123,-4.5745 0.34233,-8.89271 0.22896,-13.357535 -0.22924,-9.029158 -0.0744,-18.068058 -0.0778,-27.102931 -5.6e-4,-1.520374 -8e-5,-3.040765 -8e-5,-4.697478 -9.04579,3.306323 -11.77315,7.058533 -12.35486,16.021478 -0.34654,5.339407 -0.88421,10.67425 -1.56724,15.981378 -0.5015,3.896504 -2.9503,5.986688 -6.92073,6.023208 -3.76769,0.0347 -7.1329,-2.601865 -6.94322,-6.514947 0.48378,-9.980232 1.51261,-19.93657 2.45797,-29.889666 0.17988,-1.893873 1.69343,-3.169398 3.18919,-4.31459 9.40929,-7.203954 19.38532,-13.630129 28.63404,-21.065774 3.93719,-3.16536 9.23894,-2.188102 11.73539,2.215082 4.93083,8.696919 12.099468,15.585092 18.122888,23.390703 1.26824,1.643498 2.74765,2.558103 4.94171,2.769844 5.88726,0.568144 11.76975,1.280014 17.60987,2.212144 4.59347,0.73314 7.34474,4.401599 6.59915,8.215793 -0.75092,3.841489 -4.61436,6.342522 -9.04666,5.84208 -7.13943,-0.806098 -14.27521,-1.64517 -21.418,-2.419886 -2.69824,-0.292657 -4.75358,-1.599791 -6.46231,-3.623946 -1.694298,-2.007078 -3.438568,-3.971979 -5.998458,-6.919855 0,7.507897 -0.0486,13.785521 0.032,20.061501 0.0219,1.704917 1.64254,2.156997 2.88929,2.759582 5.971078,2.88603 11.923668,5.813941 17.950058,8.580525 4.15533,1.90763 5.79386,5.13766 5.57118,9.51068 -0.38716,7.6031 -0.76335,15.2072 -1.22916,22.80567 -0.19077,3.11181 -0.5824,6.21736 -3.31407,8.74101 z"
  
   style="stroke-width:0.847444" /><path
   fill="currentColor"
   opacity="1"
   stroke="none"
   d="m 100.99751,151.28237 c 8.03269,-0.004 15.66377,-0.21283 23.27619,0.0739 4.19729,0.15809 5.46255,-1.42752 5.19296,-5.39742 -0.27676,-4.07547 -0.0736,-8.18389 -0.0709,-12.27789 0.004,-6.86078 0.008,-6.86387 6.67198,-6.86842 7.05862,-0.006 14.12155,-0.14987 21.17405,0.0575 3.55828,0.10465 4.73385,-1.22739 4.602,-4.68688 -0.19877,-5.21519 0.0608,-10.44627 -0.0441,-15.66722 -0.0635,-3.1578 0.99208,-4.54835 4.40906,-4.4925 10.44395,0.17067 20.8992,0.28177 31.33637,-0.035 5.05513,-0.15342 4.30231,2.88535 4.51717,6.00648 0.24859,3.61074 -0.88156,5.07508 -4.7265,4.9213 -6.76534,-0.27057 -13.55178,0.0332 -20.3247,-0.11597 -2.95572,-0.0652 -4.01394,1.01584 -3.92495,3.94422 0.15859,5.21858 0.0554,10.44544 0.0434,15.66878 -0.0127,5.50818 -0.0801,5.58928 -5.76394,5.60043 -7.05854,0.0138 -14.11717,-0.0279 -21.17575,-0.0276 -5.3687,1.9e-4 -5.55598,0.17568 -5.58981,5.38143 -0.0293,4.51726 -0.21064,9.04591 0.041,13.54909 0.24211,4.33268 -1.6769,5.65966 -5.74807,5.55683 -7.47728,-0.18892 -14.96479,0.0507 -22.44417,-0.0917 -3.39261,-0.0646 -4.87143,1.07093 -4.72123,4.64049 0.21942,5.21424 -0.0386,10.44706 0.10252,15.66667 0.0884,3.27091 -1.24797,4.55581 -4.50661,4.50993 -8.045178,-0.11327 -16.095248,0.0753 -24.138818,-0.0851 -3.32036,-0.0662 -4.50179,1.12617 -4.37971,4.44072 0.20253,5.4981 -0.061,11.01231 0.0882,16.51384 0.0809,2.98556 -1.14445,3.93598 -4.00955,3.90818 -10.58692,-0.10274 -21.17672,-0.14341 -31.7627,-0.002 -4.688,0.0626 -3.70589,-3.1414 -3.80582,-5.81818 -0.0971,-2.60084 -0.37169,-5.11425 3.66587,-4.99217 6.76973,0.2047 13.56051,-0.18356 20.32307,0.11545 3.84914,0.17014 4.92557,-1.25997 4.76933,-4.84914 -0.22694,-5.21371 0.0932,-10.452 -0.15658,-15.66369 -0.17906,-3.7362 1.24672,-4.95497 4.90893,-4.86209 7.75922,0.19673 15.52998,-0.0782 23.29059,0.0901 3.35703,0.0728 4.47712,-1.17677 4.35337,-4.45315 -0.20237,-5.35718 0.0339,-10.72998 -0.1179,-16.09041 -0.0882,-3.11266 1.15489,-4.47358 4.645998,-4.16853 z"
  
   style="stroke-width:0.847444" /><path
   fill="currentColor"
   opacity="1"
   stroke="none"
   d="m 78.678652,8.1651059 c 7.3907,-6.2141923 15.56591,-6.8477459 22.306038,-1.938851 6.3468,4.6224351 8.7044,13.0859281 5.67688,20.3793261 -3.55599,8.566482 -14.013508,12.954128 -22.114138,9.278396 -9.41626,-4.272716 -13.27784,-14.758534 -8.65076,-23.638588 0.70929,-1.361219 1.70574,-2.5728101 2.78198,-4.0802831 z"
   
   style="stroke-width:0.847444" /></svg>
