<?xml version="1.0" encoding="UTF-8" standalone="no"?>
<svg
   version="1.1"
   id="Layer_1"
   x="0px"
   y="0px"
   width="100%"
   viewBox="0 0 216 215"
   enable-background="new 0 0 216 215"
   xml:space="preserve"
   sodipodi:docname="treadmill.svg"
   inkscape:version="1.4 (86a8ad7, 2024-10-11)"
   xmlns:inkscape="http://www.inkscape.org/namespaces/inkscape"
   xmlns:sodipodi="http://sodipodi.sourceforge.net/DTD/sodipodi-0.dtd"
   xmlns="http://www.w3.org/2000/svg"
   xmlns:svg="http://www.w3.org/2000/svg"><defs
   id="defs4" /><sodipodi:namedview
   id="namedview4"
   borderopacity="0.25"
/>
<path
   fill="currentColor"
   opacity="1"
   stroke="none"
   d="m 166.69852,165.1611 c -1.19159,3.98821 -2.65525,7.91994 -3.49817,11.98052 -0.8409,4.05088 -2.74573,5.5485 -7.01839,5.82014 -23.58113,1.49921 -47.14243,3.31983 -70.701087,5.15166 -3.06369,0.23822 -6.05143,1.51983 -9.112358,1.71164 -4.895393,0.30675 -9.839218,-0.15019 -14.733219,0.16765 -13.622982,0.88476 -27.233803,1.96495 -40.843334,3.04469 -5.871523,0.46586 -9.8087,4.68118 -9.619944,10.0535 0.18181,5.17462 4.21139,8.9277 9.904903,9.2127 0.664811,0.0333 1.332539,0.01 1.998915,0.01 51.644432,1.2e-4 103.288854,0.002 154.933284,-0.0128 1.49138,-4.4e-4 3.02474,-7.2e-4 4.46619,-0.32384 4.42002,-0.99079 6.89873,-4.37757 6.80232,-9.03077 -0.13183,-6.36328 -2.25615,-8.52938 -10.39462,-10.43918 0.18672,-0.77542 0.34247,-1.55866 0.56412,-2.3228 6.30165,-21.72577 12.60219,-43.45187 18.92055,-65.1728 2.97206,-10.21724 6.1125,-20.38766 8.92907,-30.647261 2.11162,-7.69178 -2.36615,-12.15561 -9.83662,-12.072853 -6.34245,0.07027 -7.81386,3.883941 -9.11911,8.31987 -7.22859,24.566534 -14.32794,49.171114 -21.6425,74.549924 M 79.710762,98.062248 c 1.098923,3.725822 2.197838,7.451642 3.836868,13.008672 -3.002235,5.58291 -6.974373,13.24691 -11.287819,20.71375 -0.707901,1.22542 -2.862457,2.08629 -4.441696,2.25805 -8.10675,0.88176 -16.249878,1.42194 -24.368686,2.20226 -6.305878,0.60608 -9.997235,4.52814 -9.542023,9.89253 0.464935,5.47896 4.717228,8.6382 11.026794,8.13468 6.803669,-0.54294 13.620461,-0.97968 20.402157,-1.72872 19.267471,-2.12803 15.798149,1.07907 25.794609,-17.52289 2.876595,-5.35292 5.802078,-10.67959 8.79818,-16.1894 6.889394,4.69637 13.326954,8.84504 19.459574,13.40391 1.96876,1.46353 3.67187,3.79924 4.57042,6.09795 3.75292,9.60092 7.02501,19.38974 10.77562,28.99162 0.91264,2.33644 2.59285,4.75273 4.59504,6.19614 3.11264,2.24395 6.72957,1.70634 9.76073,-0.66092 3.62097,-2.82784 4.2101,-6.67072 2.74245,-10.7934 -3.8489,-10.81181 -7.42676,-21.74791 -11.92791,-32.28628 -1.84577,-4.32148 -5.20465,-8.47947 -8.90101,-11.42421 -7.03748,-5.60651 -14.81239,-10.28736 -22.55155,-15.53596 3.49688,-7.063293 6.79552,-13.745109 10.12033,-20.413887 0.34843,-0.698875 0.85126,-1.320778 1.52342,-2.345878 1.31545,1.548095 2.38076,2.754097 3.39396,4.002403 4.56558,5.625015 7.22888,6.401199 13.8567,3.988182 6.24498,-2.273651 12.50109,-4.517693 18.72661,-6.843506 5.6162,-2.09816 7.93979,-6.105354 6.26033,-10.597794 -1.68007,-4.494148 -5.93298,-5.976699 -11.70234,-3.995193 -4.55541,1.564568 -9.05385,3.300446 -13.63842,4.770569 -1.07826,0.345772 -2.96429,0.414268 -3.51539,-0.222885 -2.4854,-2.873528 -5.47853,-5.734299 -6.73412,-9.168087 -4.39695,-12.024723 -5.79898,-12.861573 -18.33412,-13.153763 -7.40708,-0.172649 -14.756409,-2.152573 -22.174157,-2.896702 -2.650329,-0.265881 -5.948211,-0.0921 -8.047592,1.271328 -6.830131,4.435795 -13.335396,9.394875 -19.782161,14.389446 -3.990788,3.091828 -4.515992,7.50425 -1.792145,10.950333 2.767677,3.501533 7.157524,4.158226 11.107036,1.450905 3.705666,-2.540169 7.639145,-4.906433 10.821938,-8.01516 5.23555,-5.113743 10.730766,-4.670112 17.020599,-2.176113 -5.297699,11.317349 -10.49176,22.413303 -15.852226,34.24802 M 143.14336,32.497929 c 0.0945,-0.975121 0.38642,-1.978239 0.25268,-2.920979 -1.18484,-8.352608 -8.95015,-14.304385 -17.5901,-13.556177 -8.72259,0.755365 -15.21316,8.242735 -14.79794,17.070555 0.4076,8.665836 7.74627,15.751201 16.30324,15.740497 8.88972,-0.01112 15.53983,-6.494232 15.83212,-16.333896 z"
/>
<path
   fill="currentColor"
   opacity="1.000000"
   stroke="none"
   d=" M166.783997,164.767456   C174.013077,139.782288 181.112427,115.177711 188.341019,90.611176   C189.646271,86.175247 191.117676,82.361572 197.460129,82.291306   C204.930603,82.208549 209.408371,86.672379 207.296753,94.364159   C204.480179,104.623756 201.339737,114.794182 198.367676,125.011421   C192.049316,146.732346 185.748779,168.458450 179.447128,190.184219   C179.225479,190.948364 179.069733,191.731598 178.883011,192.507019   C187.021484,194.416824 189.145798,196.582916 189.277634,202.946198   C189.374039,207.599396 186.895325,210.986176 182.475311,211.976974   C181.033859,212.300095 179.500504,212.300369 178.009125,212.300812   C126.364693,212.316116 74.720268,212.313751 23.075836,212.313629   C22.409460,212.313629 21.741732,212.336884 21.076921,212.303604   C15.383408,212.018600 11.353828,208.265518 11.172018,203.090897   C10.983262,197.718582 14.920439,193.503265 20.791962,193.037399   C34.401493,191.957657 48.012314,190.877472 61.635296,189.992706   C66.529297,189.674866 71.473122,190.131805 76.368515,189.825058   C79.429443,189.633255 82.417183,188.351639 85.480873,188.113419   C109.039528,186.281586 132.600830,184.460968 156.181961,182.961761   C160.454620,182.690125 162.359451,181.192505 163.200348,177.141617   C164.043274,173.081039 165.506927,169.149307 166.783997,164.767456  z"
/>
<path
   fill="currentColor"
   opacity="1.000000"
   stroke="none"
   d=" M79.793961,97.692863   C85.071228,86.227531 90.265289,75.131577 95.562988,63.814228   C89.273155,61.320229 83.777939,60.876598 78.542389,65.990341   C75.359596,69.099068 71.426117,71.465332 67.720451,74.005501   C63.770939,76.712822 59.381092,76.056129 56.613415,72.554596   C53.889568,69.108513 54.414772,64.696091 58.405560,61.604263   C64.852325,56.609692 71.357590,51.650612 78.187721,47.214817   C80.287102,45.851387 83.584984,45.677608 86.235313,45.943489   C93.653061,46.687618 101.002388,48.667542 108.409470,48.840191   C120.944611,49.132381 122.346642,49.969231 126.743591,61.993954   C127.999184,65.427742 130.992310,68.288513 133.477707,71.162041   C134.028809,71.799194 135.914841,71.730698 136.993103,71.384926   C141.577667,69.914803 146.076111,68.178925 150.631516,66.614357   C156.400879,64.632851 160.653793,66.115402 162.333862,70.609550   C164.013321,75.101990 161.689728,79.109184 156.073532,81.207344   C149.848007,83.533157 143.591904,85.777199 137.346924,88.050850   C130.719101,90.463867 128.055801,89.687683 123.490219,84.062668   C122.477020,82.814362 121.411713,81.608360 120.096260,80.060265   C119.424103,81.085365 118.921272,81.707268 118.572838,82.406143   C115.248032,89.074921 111.949387,95.756737 108.452507,102.820030   C116.191666,108.068634 123.966583,112.749481 131.004059,118.355988   C134.700424,121.300728 138.059296,125.458717 139.905075,129.780197   C144.406219,140.318573 147.984085,151.254669 151.832977,162.066483   C153.300629,166.189163 152.711502,170.032043 149.090530,172.859879   C146.059372,175.227142 142.442444,175.764755 139.329803,173.520798   C137.327606,172.077393 135.647400,169.661102 134.734756,167.324661   C130.984146,157.722778 127.712059,147.933960 123.959137,138.333038   C123.060585,136.034332 121.357483,133.698624 119.388718,132.235092   C113.256104,127.676224 106.818542,123.527550 99.929146,118.831184   C96.933044,124.340988 94.007561,129.667664 91.130966,135.020584   C81.134506,153.622543 84.603828,150.415436 65.336357,152.543472   C58.554661,153.292511 51.737869,153.729248 44.934200,154.272186   C38.624634,154.775711 34.372341,151.616470 33.907406,146.137512   C33.452194,140.773117 37.143551,136.851059 43.449429,136.244980   C51.568237,135.464661 59.711365,134.924484 67.818115,134.042725   C69.397354,133.870956 71.551910,133.010086 72.259811,131.784668   C76.573257,124.317833 80.545395,116.653831 83.547630,111.070923   C81.908600,105.513893 80.809685,101.788071 79.793961,97.692863  z"
/>
<path
   fill="currentColor"
   opacity="1.000000"
   stroke="none"
   d=" M143.249939,32.843727   C142.851074,42.337593 136.200958,48.820705 127.311241,48.831825   C118.754272,48.842529 111.415596,41.757164 111.008003,33.091328   C110.592781,24.263508 117.083351,16.776138 125.805939,16.020773   C134.445892,15.272565 142.211197,21.224342 143.396042,29.576950   C143.529785,30.519690 143.237885,31.522808 143.249939,32.843727  z"
/>
</svg>
